<svg width="20" height="20" fill="none" xmlns="http://www.w3.org/2000/svg"><g clip-path="url(#a)"><path fill-rule="evenodd" clip-rule="evenodd" d="M.833 2.365A1.532 1.532 0 0 1 2.365.833h15.268a1.531 1.531 0 0 1 1.533 1.532v15.268a1.529 1.529 0 0 1-1.532 1.534H2.364a1.532 1.532 0 0 1-1.531-1.533V2.365ZM8.09 7.823h2.482V9.07c.359-.717 1.275-1.362 2.653-1.362 2.64 0 3.266 1.428 3.266 4.047v4.852H13.82v-4.255c0-1.492-.359-2.334-1.269-2.334-1.262 0-1.787.908-1.787 2.334v4.255H8.09V7.823Zm-4.584 8.67H6.18V7.707H3.506v8.784Zm3.056-11.65a1.72 1.72 0 1 1-3.437.076 1.72 1.72 0 0 1 3.437-.076Z" fill="#000"/></g><defs><clipPath id="a"><path fill="#fff" d="M0 0h20v20H0z"/></clipPath></defs></svg>