<svg width="50" height="50" fill="none" xmlns="http://www.w3.org/2000/svg"><circle cx="25" cy="25" r="24.5" stroke="#0F9ED8"/><path d="M27.2 15.875a4.625 4.625 0 0 0-4.625 4.625v2.575H20.1c-.124 0-.225.1-.225.225v3.4c0 .124.1.225.225.225h2.475V33.9c0 .124.1.225.225.225h3.4c.124 0 .225-.1.225-.225v-6.975h2.497c.103 0 .193-.07.218-.17l.85-3.4a.224.224 0 0 0-.12-.257.225.225 0 0 0-.098-.023h-3.347V20.5a.774.774 0 0 1 .775-.775h2.6c.124 0 .225-.1.225-.225v-3.4c0-.124-.1-.225-.225-.225h-2.6Z" fill="#0F9ED8"/></svg>