<svg width="19" height="19" fill="none" xmlns="http://www.w3.org/2000/svg"><g clip-path="url(#a)"><path d="M18.109 9.7c0-.738-.059-1.277-.186-1.835H9.676v3.33h4.84c-.097.828-.624 2.074-1.795 2.912l-.016.111 2.607 2.064.181.019c1.66-1.566 2.616-3.87 2.616-6.602Z" fill="#4285F4"/><path d="M9.676 18.474c2.371 0 4.363-.797 5.817-2.174l-2.772-2.193c-.742.528-1.737.897-3.045.897-2.323 0-4.295-1.565-4.998-3.73l-.103.01-2.711 2.144-.036.1c1.445 2.932 4.412 4.946 7.848 4.946Z" fill="#34A853"/><path d="M4.678 11.275A5.633 5.633 0 0 1 4.386 9.5c0-.618.107-1.217.283-1.775l-.005-.119-2.746-2.178-.09.044a9.14 9.14 0 0 0 0 8.057l2.85-2.254Z" fill="#FBBC05"/><path d="M9.676 3.996c1.65 0 2.762.728 3.396 1.336l2.48-2.473C14.029 1.413 12.047.526 9.675.526 6.24.526 3.273 2.54 1.828 5.472l2.84 2.253c.713-2.164 2.685-3.73 5.008-3.73Z" fill="#EB4335"/></g><defs><clipPath id="a"><rect x=".891" y=".5" width="17.217" height="18" rx="8.609" fill="#fff"/></clipPath></defs></svg>