<svg width="50" height="50" fill="none" xmlns="http://www.w3.org/2000/svg"><circle cx="25" cy="25" r="24.5" stroke="#0F9ED8"/><path d="M25.001 22a3 3 0 1 0 0 6 3 3 0 0 0 0-6Zm0-2a5 5 0 1 1 0 10 5 5 0 0 1 0-10Zm6.5-.25a1.25 1.25 0 1 1-2.5 0 1.25 1.25 0 0 1 2.5 0Zm-6.5-2.75c-2.474 0-2.878.007-4.029.058-.784.037-1.31.142-1.798.332-.408.15-.778.39-1.08.703a2.89 2.89 0 0 0-.704 1.08c-.19.49-.295 1.015-.331 1.798C17.007 22.075 17 22.461 17 25c0 2.475.007 2.878.058 4.029.037.783.142 1.31.331 1.797.17.435.37.748.702 1.08.337.336.65.537 1.08.703.494.191 1.02.297 1.8.333 1.104.052 1.49.058 4.029.058 2.475 0 2.878-.007 4.029-.058.782-.037 1.308-.142 1.797-.331a2.91 2.91 0 0 0 1.08-.703c.337-.336.538-.649.704-1.08.19-.492.296-1.018.332-1.8.052-1.103.058-1.49.058-4.028 0-2.474-.007-2.878-.058-4.029-.037-.782-.143-1.31-.332-1.798a2.913 2.913 0 0 0-.703-1.08 2.884 2.884 0 0 0-1.08-.704c-.49-.19-1.016-.295-1.798-.331-1.103-.052-1.488-.058-4.028-.058Zm0-2c2.717 0 3.056.01 4.123.06 1.064.05 1.79.217 2.427.465.66.254 1.216.598 1.772 1.153.508.5.902 1.105 1.153 1.772.247.637.415 1.363.465 2.428.047 1.066.06 1.405.06 4.122 0 2.717-.01 3.056-.06 4.122-.05 1.065-.218 1.79-.465 2.428a4.884 4.884 0 0 1-1.153 1.772c-.5.508-1.105.902-1.772 1.153-.637.247-1.363.415-2.427.465-1.067.047-1.406.06-4.123.06-2.717 0-3.056-.01-4.123-.06-1.064-.05-1.789-.218-2.427-.465a4.89 4.89 0 0 1-1.772-1.153 4.903 4.903 0 0 1-1.153-1.772c-.248-.637-.415-1.363-.465-2.428-.048-1.066-.06-1.405-.06-4.122 0-2.717.01-3.056.06-4.122.05-1.066.217-1.79.465-2.428a4.88 4.88 0 0 1 1.153-1.772 4.895 4.895 0 0 1 1.772-1.153c.637-.248 1.362-.415 2.427-.465 1.067-.047 1.406-.06 4.123-.06Z" fill="#0F9ED8"/></svg>