<svg width="24" height="25" fill="none" xmlns="http://www.w3.org/2000/svg"><path d="M13 3.752c2.163-.616 4.543-.105 6.198 1.55 1.655 1.655 2.166 4.035 1.55 6.198m-5.811-5.036c.772-.154 1.662.113 2.324.775.662.662.929 1.552.775 2.324" stroke="#0F9ED8" stroke-width="1.5" stroke-linecap="round" stroke-linejoin="round"/><path d="M15.165 21.384a7.705 7.705 0 0 0 2.67 0c1.417-.25 2.558-1.201 2.951-2.46l.083-.267c.087-.278.131-.565.131-.854 0-1.272-1.138-2.303-2.541-2.303H14.54c-1.402 0-2.54 1.031-2.54 2.303 0 .289.044.576.13.854l.084.267c.393 1.259 1.534 2.21 2.951 2.46Zm0 0A15.04 15.04 0 0 1 3.117 9.334m0 0a7.704 7.704 0 0 1 0-2.669c.25-1.417 1.2-2.558 2.46-2.951l.266-.083a2.86 2.86 0 0 1 .854-.131C7.969 3.5 9 4.638 9 6.041V9.96c0 1.402-1.031 2.54-2.303 2.54-.289 0-.576-.044-.854-.13l-.267-.084c-1.259-.393-2.21-1.534-2.46-2.951Z" stroke="#0F9ED8" stroke-width="1.5"/></svg>