<svg width="50" height="50" fill="none" xmlns="http://www.w3.org/2000/svg"><circle cx="25" cy="25" r="24.5" stroke="#0F9ED8"/><path d="M32.552 15.997a2.26 2.26 0 0 0-.7.167h-.003c-.213.085-1.23.512-2.774 1.16l-5.537 2.332c-3.973 1.673-7.878 3.32-7.878 3.32l.046-.018s-.269.088-.55.281c-.174.11-.323.255-.44.425a1.246 1.246 0 0 0-.207.833c.067.541.418.866.67 1.045.255.182.498.266.498.266h.006l3.663 1.234c.164.527 1.116 3.656 1.344 4.377.135.43.266.7.43.905.08.105.173.193.285.264.058.034.12.06.184.08l-.037-.01c.011.003.02.012.029.015.03.008.05.011.088.017.58.176 1.046-.184 1.046-.184l.026-.021 2.162-1.969 3.624 2.78.082.036c.756.331 1.52.147 1.925-.179.407-.328.566-.747.566-.747l.026-.067 2.8-14.347c.08-.354.1-.686.012-1.007-.09-.326-.3-.606-.586-.785a1.405 1.405 0 0 0-.8-.203Zm-.075 1.538c-.003.047.006.041-.015.132v.008l-2.775 14.198c-.012.02-.032.064-.088.109-.058.046-.105.075-.348-.021l-4.433-3.398-2.677 2.44.562-3.593 7.242-6.75c.299-.277.199-.335.199-.335.021-.341-.45-.1-.45-.1l-9.133 5.657-.003-.015-4.377-1.474v-.003l-.011-.002a.188.188 0 0 0 .022-.009l.024-.012.024-.008 7.88-3.32c1.99-.838 3.994-1.681 5.535-2.332a588.3 588.3 0 0 1 2.745-1.148c.062-.024.032-.024.077-.024Z" fill="#0F9ED8"/></svg>